<svg xmlns="http://www.w3.org/2000/svg" style="display: none;">
	<symbol id="right-arrow" viewBox="0 0 31.49 31.49">
		<path fill="currentColor" d="M21.205,5.007c-0.429-0.444-1.143-0.444-1.587,0c-0.429,0.429-0.429,1.143,0,1.571l8.047,8.047H1.111 C0.492,14.626,0,15.118,0,15.737c0,0.619,0.492,1.127,1.111,1.127h26.554l-8.047,8.032c-0.429,0.444-0.429,1.159,0,1.587 c0.444,0.444,1.159,0.444,1.587,0l9.952-9.952c0.444-0.429,0.444-1.143,0-1.571L21.205,5.007z"/>
	</symbol>
	
    <symbol id="left-arrow" viewBox="0 0 448 512">
        <path fill="currentColor" d="M231.536 475.535l7.071-7.07c4.686-4.686 4.686-12.284 0-16.971L60.113 273H436c6.627 0 12-5.373 12-12v-10c0-6.627-5.373-12-12-12H60.113L238.607 60.506c4.686-4.686 4.686-12.284 0-16.971l-7.071-7.07c-4.686-4.686-12.284-4.686-16.97 0L3.515 247.515c-4.686 4.686-4.686 12.284 0 16.971l211.051 211.05c4.686 4.686 12.284 4.686 16.97-.001z" />
	</symbol>

	<symbol id="up-arrow" viewBox="0 0 23 23">
		<path fill="currentColor" transform="translate(11.000000, 11.000000) rotate(-90.000000) translate(-11.000000, -11.000000) translate(-0.500000, -0.500000)" d="M12.205,1.007 C11.776,0.563 11.062,0.563 10.618,1.007 C10.189,1.436 10.189,2.15 10.618,2.578 L18.665,10.625 L1.47814301,10.625 C0.859143006,10.626 0.200234075,11.118 0.200234075,11.737 C0.200234075,12.356 0.86900116,12.864 1.48800116,12.864 L18.665,12.864 L10.618,20.896 C10.189,21.34 10.189,22.055 10.618,22.483 C11.062,22.927 11.777,22.927 12.205,22.483 L22.157,12.531 C22.601,12.102 22.601,11.388 22.157,10.96 L12.205,1.007 Z"></path>
	</symbol>
	
    <symbol id="down-arrow" viewBox="0 0 23 23">
		<path fill="currentColor" transform="translate(11.000000, 11.000000) rotate(-270.000000) translate(-11.000000, -11.000000) translate(-0.500000, -0.500000)" d="M12.6319515,0.716648888 C12.2029515,0.272648888 11.4889515,0.272648888 11.0449515,0.716648888 C10.6159515,1.14564889 10.6159515,1.85964889 11.0449515,2.28764889 L19.0919515,10.3346489 L1.90509452,10.3346489 C1.28609452,10.3356489 0.627185586,10.8276489 0.627185586,11.4466489 C0.627185586,12.0656489 1.29595267,12.5736489 1.91495267,12.5736489 L19.0919515,12.5736489 L11.0449515,20.6056489 C10.6159515,21.0496489 10.6159515,21.7646489 11.0449515,22.1926489 C11.4889515,22.6366489 12.2039515,22.6366489 12.6319515,22.1926489 L22.5839515,12.2406489 C23.0279515,11.8116489 23.0279515,11.0976489 22.5839515,10.6696489 L12.6319515,0.716648888 Z"></path>
	</symbol>
    
    <symbol id="arrow-left" viewBox="0 0 14 12">
        <path d="M12.8333 5.16657H2.94992L5.97492 1.53324C6.11637 1.36306 6.18442 1.14366 6.1641 0.923301C6.14379 0.702946 6.03677 0.499686 5.86659 0.358238C5.69641 0.216789 5.47701 0.148737 5.25665 0.169054C5.03629 0.18937 4.83303 0.29639 4.69159 0.466571L0.524919 5.46657C0.496886 5.50634 0.471818 5.54812 0.449919 5.59157C0.449919 5.63324 0.449919 5.65824 0.391585 5.6999C0.353813 5.79545 0.334036 5.89716 0.333252 5.9999C0.334036 6.10264 0.353813 6.20435 0.391585 6.2999C0.391585 6.34157 0.391585 6.36657 0.449919 6.40824C0.471818 6.45169 0.496886 6.49347 0.524919 6.53324L4.69159 11.5332C4.76994 11.6273 4.86805 11.703 4.97896 11.7548C5.08986 11.8067 5.21083 11.8334 5.33325 11.8332C5.52796 11.8336 5.71666 11.7658 5.86659 11.6416C5.95097 11.5716 6.02072 11.4857 6.07185 11.3887C6.12297 11.2918 6.15447 11.1857 6.16453 11.0765C6.1746 10.9674 6.16303 10.8573 6.13049 10.7527C6.09795 10.648 6.04509 10.5508 5.97492 10.4666L2.94992 6.83324H12.8333C13.0543 6.83324 13.2662 6.74544 13.4225 6.58916C13.5788 6.43288 13.6666 6.22092 13.6666 5.9999C13.6666 5.77889 13.5788 5.56693 13.4225 5.41065C13.2662 5.25437 13.0543 5.16657 12.8333 5.16657Z" fill="currentColor"/>
	</symbol>
    
    <symbol id="long-arrow-left" viewBox="0 0 448 512">
        <path fill="currentColor" d="M136.97 380.485l7.071-7.07c4.686-4.686 4.686-12.284 0-16.971L60.113 273H436c6.627 0 12-5.373 12-12v-10c0-6.627-5.373-12-12-12H60.113l83.928-83.444c4.686-4.686 4.686-12.284 0-16.971l-7.071-7.07c-4.686-4.686-12.284-4.686-16.97 0l-116.485 116c-4.686 4.686-4.686 12.284 0 16.971l116.485 116c4.686 4.686 12.284 4.686 16.97-.001z" class=""></path>
	</symbol>
    
    <symbol id="long-arrow-right" viewBox="0 0 448 512">
        <path fill="currentColor" d="M311.03 131.515l-7.071 7.07c-4.686 4.686-4.686 12.284 0 16.971L387.887 239H12c-6.627 0-12 5.373-12 12v10c0 6.627 5.373 12 12 12h375.887l-83.928 83.444c-4.686 4.686-4.686 12.284 0 16.971l7.071 7.07c4.686 4.686 12.284 4.686 16.97 0l116.485-116c4.686-4.686 4.686-12.284 0-16.971L328 131.515c-4.686-4.687-12.284-4.687-16.97 0z" class=""></path>
	</symbol>

    <symbol id="up-angle" viewBox="0 0 13 8">
		<g transform="translate(6.500000, 4.000000) rotate(-180.000000) translate(-6.500000, -4.000000) " fill="currentColor" fill-rule="nonzero">
            <path d="M11.916684,0.6244686 L6.782627,6.0771538 L1.518086,0.6103552 C1.329874,0.4149116 1.018859,0.4090497 0.823415,0.5972624 C0.822365,0.5982733 0.82132,0.5992889 0.820279,0.6003091 L0.820279,0.6003091 C0.624274,0.792454 0.619736,1.1066597 0.810112,1.3043842 L6.057728,6.7545758 C6.440789,7.1524238 7.07384,7.1644113 7.471688,6.7813507 C7.482286,6.771147 7.492657,6.7607107 7.502794,6.7500494 L12.660091,1.3260652 C12.854347,1.1217638 12.846204,0.798669 12.641903,0.6044127 C12.641443,0.603976 12.640983,0.6035401 12.640522,0.6031051 L12.640522,0.6031051 C12.434973,0.4091151 12.111082,0.4184857 11.917092,0.6240349 C11.916956,0.6241794 11.91682,0.624324 11.916684,0.6244686 Z" id="Path"></path>
        </g>
	</symbol>
	
	<symbol id="down-angle" viewBox="0 0 13 8">
		<path transform="translate(-507.000000, -24.000000)" fill="currentColor" d="M518.916684,24.6244686 L513.782627,30.0771538 L508.518086,24.6103552 C508.329874,24.4149116 508.018859,24.4090497 507.823415,24.5972624 C507.822365,24.5982733 507.82132,24.5992889 507.820279,24.6003091 L507.820279,24.6003091 C507.624274,24.792454 507.619736,25.1066597 507.810112,25.3043842 L513.057728,30.7545758 C513.440789,31.1524238 514.07384,31.1644113 514.471688,30.7813507 C514.482286,30.771147 514.492657,30.7607107 514.502794,30.7500494 L519.660091,25.3260652 C519.854347,25.1217638 519.846204,24.798669 519.641903,24.6044127 C519.641443,24.603976 519.640983,24.6035401 519.640522,24.6031051 L519.640522,24.6031051 C519.434973,24.4091151 519.111082,24.4184857 518.917092,24.6240349 C518.916956,24.6241794 518.91682,24.624324 518.916684,24.6244686 Z"></path>
	</symbol>

    <symbol id="left-angle" viewBox="0 0 17 25" version="1.1" xmlns="http://www.w3.org/2000/svg" xmlns:xlink="http://www.w3.org/1999/xlink">
        <g stroke="none" stroke-width="1" fill="none" fill-rule="evenodd">
            <g transform="translate(-1232.000000, -3594.000000)" fill="currentColor">
                <g transform="translate(0.000000, 3298.000000)">
                    <g transform="translate(24.000000, 59.000000)">
                        <g transform="translate(1168.000000, 220.000000)">
                            <polygon transform="translate(48.253676, 29.274001) rotate(-180.000000) translate(-48.253676, -29.274001) " points="41.2365271 17 40 18.5564321 53.3189464 29.2778329 40 39.9996164 41.2365271 41.5480011 56.507352 29.2758373"></polygon>
                        </g>
                    </g>
                </g>
            </g>
        </g>
    </symbol>

    <svg id="right-angle" viewBox="0 0 17 25" version="1.1" xmlns="http://www.w3.org/2000/svg" xmlns:xlink="http://www.w3.org/1999/xlink">
        <g stroke="none" stroke-width="1" fill="none" fill-rule="evenodd">
            <g transform="translate(-1232.000000, -3594.000000)" fill="currentColor">
                <g transform="translate(0.000000, 3298.000000)">
                    <g transform="translate(24.000000, 59.000000)">
                        <g transform="translate(1168.000000, 220.000000)">
                            <polygon points="41.2365271 17 40 18.5564321 53.3189464 29.2778329 40 39.9996164 41.2365271 41.5480011 56.507352 29.2758373"></polygon>
                        </g>
                    </g>
                </g>
            </g>
        </g>
    </svg>

	<symbol id="burger" viewBox="0 0 512 320">
		<path fill="currentColor" d="M501.333,0 C507.221,0 512.001,4.779 512.001,10.667 C512.001,16.555 507.222,21.334 501.334,21.334 L10.667,21.334 C4.779,21.334 0,16.555 0,10.667 C0,4.779 4.779,0 10.667,0 L501.333,0 Z M501.333,149.333 C507.221,149.333 512.001,154.112 512.001,160 C512.001,165.888 507.222,170.667 501.334,170.667 L10.667,170.667 C4.779,170.667 0,165.888 0,160 C0,154.112 4.779,149.333 10.667,149.333 L501.333,149.333 Z M501.333,298.667 C507.221,298.667 512,303.445 512.001,309.333 C512.001,315.221 507.222,320 501.334,320 L10.667,320 C4.779,320 0,315.221 0,309.333 C0,303.445 4.779,298.667 10.667,298.667 L501.333,298.667 Z" />
	</symbol>

	<symbol id="shopping-bag" viewBox="-42 0 478 478.40001">
        <path fill="currentColor" d="m368.582031 122.898438c-.4375-5.179688-4.800781-9.148438-10-9.097657h-76v-28.800781c0-46.945312-38.058593-85-85-85-46.945312 0-85 38.054688-85 85v28.800781h-76c-5.175781.019531-9.496093 3.949219-10 9.097657l-26.199219 301.203124c-1.191406 13.964844 3.527344 27.792969 13.015626 38.117188 9.484374 10.320312 22.863281 16.191406 36.882812 16.179688h294.699219c14.019531.011718 27.398437-5.859376 36.882812-16.179688 9.488281-10.324219 14.210938-24.152344 13.019531-38.117188zm-236-37.898438c0-35.898438 29.101563-65 65-65 35.898438 0 65 29.101562 65 65v28.800781h-130zm234.5 363.699219c-5.65625 6.226562-13.691406 9.753906-22.101562 9.699219h-294.800781c-8.410157.003906-16.433594-3.523438-22.121094-9.71875-5.683594-6.199219-8.507813-14.5-7.777344-22.878907l25.398438-292h66.902343v62.398438c-16.082031 4.949219-26.125 20.914062-23.621093 37.554687 2.5 16.636719 16.796874 28.941406 33.621093 28.941406s31.117188-12.304687 33.621094-28.941406c2.5-16.640625-7.542969-32.605468-23.621094-37.554687v-62.5h130v62.5c-16.082031 4.949219-26.125 20.914062-23.621093 37.554687 2.5 16.636719 16.796874 28.941406 33.621093 28.941406s31.117188-12.304687 33.621094-28.941406c2.5-16.640625-7.542969-32.605468-23.621094-37.554687v-62.5h66.800781l25.398438 292c.820312 8.414062-1.980469 16.777343-7.699219 23zm-246-233.898438c.996094.132813 2.003907.132813 3 0 7.394531.796875 12.878907 7.242188 12.480469 14.667969-.402344 7.429688-6.542969 13.25-13.980469 13.25-7.441406 0-13.582031-5.820312-13.980469-13.25-.398437-7.425781 5.082032-13.871094 12.480469-14.667969zm150 0c.996094.132813 2.003907.132813 3 0 7.394531.796875 12.878907 7.242188 12.480469 14.667969-.402344 7.429688-6.542969 13.25-13.980469 13.25-7.441406 0-13.582031-5.820312-13.980469-13.25-.398437-7.425781 5.082032-13.871094 12.480469-14.667969zm0 0"/>
	</symbol>
	
	<symbol id="search" viewBox="0 0 451 451">
		<path fill="currentColor" d="M447.05,428l-109.6-109.6c29.4-33.8,47.2-77.9,47.2-126.1C384.65,86.2,298.35,0,192.35,0C86.25,0,0.05,86.3,0.05,192.3
		s86.3,192.3,192.3,192.3c48.2,0,92.3-17.8,126.1-47.2L428.05,447c2.6,2.6,6.1,4,9.5,4s6.9-1.3,9.5-4
		C452.25,441.8,452.25,433.2,447.05,428z M26.95,192.3c0-91.2,74.2-165.3,165.3-165.3c91.2,0,165.3,74.2,165.3,165.3
		s-74.1,165.4-165.3,165.4C101.15,357.7,26.95,283.5,26.95,192.3z"/>
	</symbol>

	<symbol id="plus" viewBox="0 0 384 512">
		<path fill="currentColor" d="M376 232H216V72c0-4.42-3.58-8-8-8h-32c-4.42 0-8 3.58-8 8v160H8c-4.42 0-8 3.58-8 8v32c0 4.42 3.58 8 8 8h160v160c0 4.42 3.58 8 8 8h32c4.42 0 8-3.58 8-8V280h160c4.42 0 8-3.58 8-8v-32c0-4.42-3.58-8-8-8z" class=""></path>
	</symbol>
	
    <symbol id="plus-thin" viewBox="0 0 143 144">
		<polygon fill="currentColor" stroke-width="10" points="73.4314221 70.6655617 142.772747 70.6655617 142.772747 73.6655617 73.4314221 73.6655617 73.4314221 143.006886 70.4314221 143.006886 70.4314221 73.6655617 0.427850759 73.6655617 0.427850759 70.6655617 70.4314221 70.6655617 70.4314221 0.661990368 73.4314221 0.661990368"></polygon>
	</symbol>

    <symbol id="plus-bold" viewBox="0 0 147 148">
		<path fill="currentColor" d="M74.4314221,69.6655617 L143.772747,69.6655617 L143.772747,74.6655617 L74.4314221,74.6655617 L74.4314221,144.006886 L69.4314221,144.006886 L69.4314221,74.6655617 L-0.572149241,74.6655617 L-0.572149241,69.6655617 L69.4314221,69.6655617 L69.4314221,-0.338009632 L74.4314221,-0.338009632 L74.4314221,69.6655617 Z"></path>
	</symbol>

	<symbol id="close" viewBox="0 0 11 10">
        <path fill-rule="evenodd" clip-rule="evenodd" d="M10.8173 0.182519C10.8755 0.240576 10.9217 0.309545 10.9532 0.385477C10.9847 0.461408 11.0009 0.54281 11.0009 0.625019C11.0009 0.707228 10.9847 0.788629 10.9532 0.864561C10.9217 0.940492 10.8755 1.00946 10.8173 1.06752L2.06731 9.81752C1.94995 9.93488 1.79078 10.0008 1.62481 10.0008C1.45884 10.0008 1.29967 9.93488 1.18231 9.81752C1.06495 9.70016 0.999023 9.54099 0.999023 9.37502C0.999023 9.20905 1.06495 9.04988 1.18231 8.93252L9.93231 0.182519C9.99037 0.124314 10.0593 0.0781358 10.1353 0.0466277C10.2112 0.0151196 10.2926 -0.00109863 10.3748 -0.00109863C10.457 -0.00109863 10.5384 0.0151196 10.6144 0.0466277C10.6903 0.0781358 10.7593 0.124314 10.8173 0.182519Z" fill="currentColor"/>
        <path fill-rule="evenodd" clip-rule="evenodd" d="M1.1824 0.182519C1.12419 0.240576 1.07801 0.309545 1.04651 0.385477C1.015 0.461408 0.998779 0.54281 0.998779 0.625019C0.998779 0.707228 1.015 0.788629 1.04651 0.864561C1.07801 0.940492 1.12419 1.00946 1.1824 1.06752L9.9324 9.81752C10.0498 9.93488 10.2089 10.0008 10.3749 10.0008C10.5409 10.0008 10.7 9.93488 10.8174 9.81752C10.9348 9.70016 11.0007 9.54099 11.0007 9.37502C11.0007 9.20905 10.9348 9.04988 10.8174 8.93252L2.0674 0.182519C2.00934 0.124314 1.94037 0.0781358 1.86444 0.0466277C1.78851 0.0151196 1.70711 -0.00109863 1.6249 -0.00109863C1.54269 -0.00109863 1.46129 0.0151196 1.38535 0.0466277C1.30942 0.0781358 1.24045 0.124314 1.1824 0.182519Z" fill="currentColor"/>
	</symbol>

	<symbol id="share" viewBox="0 0 58.995 58.995">
		<path d="M39.927,41.929c-0.524,0.524-0.975,1.1-1.365,1.709l-17.28-10.489c0.457-1.144,0.716-2.388,0.716-3.693
		c0-1.305-0.259-2.549-0.715-3.693l17.284-10.409C40.342,18.142,43.454,20,46.998,20c5.514,0,10-4.486,10-10s-4.486-10-10-10
		s-10,4.486-10,10c0,1.256,0.243,2.454,0.667,3.562L20.358,23.985c-1.788-2.724-4.866-4.529-8.361-4.529c-5.514,0-10,4.486-10,10
		s4.486,10,10,10c3.495,0,6.572-1.805,8.36-4.529L37.661,45.43c-0.43,1.126-0.664,2.329-0.664,3.57c0,2.671,1.04,5.183,2.929,7.071
		c1.949,1.949,4.51,2.924,7.071,2.924s5.122-0.975,7.071-2.924c1.889-1.889,2.929-4.4,2.929-7.071s-1.04-5.183-2.929-7.071
		C50.169,38.029,43.826,38.029,39.927,41.929z M46.998,2c4.411,0,8,3.589,8,8s-3.589,8-8,8s-8-3.589-8-8S42.586,2,46.998,2z
		 M11.998,37.456c-4.411,0-8-3.589-8-8s3.589-8,8-8s8,3.589,8,8S16.409,37.456,11.998,37.456z M52.654,54.657
		c-3.119,3.119-8.194,3.119-11.313,0c-1.511-1.511-2.343-3.521-2.343-5.657s0.832-4.146,2.343-5.657
		c1.56-1.56,3.608-2.339,5.657-2.339s4.097,0.779,5.657,2.339c1.511,1.511,2.343,3.521,2.343,5.657S54.166,53.146,52.654,54.657z"/>
	</symbol>
	
    <symbol id="link" viewBox="0 0 512 512">
		<path fill="currentColor" d="M314.222 197.78c51.091 51.091 54.377 132.287 9.75 187.16-6.242 7.73-2.784 3.865-84.94 86.02-54.696 54.696-143.266 54.745-197.99 0-54.711-54.69-54.734-143.255 0-197.99 32.773-32.773 51.835-51.899 63.409-63.457 7.463-7.452 20.331-2.354 20.486 8.192a173.31 173.31 0 0 0 4.746 37.828c.966 4.029-.272 8.269-3.202 11.198L80.632 312.57c-32.755 32.775-32.887 85.892 0 118.8 32.775 32.755 85.892 32.887 118.8 0l75.19-75.2c32.718-32.725 32.777-86.013 0-118.79a83.722 83.722 0 0 0-22.814-16.229c-4.623-2.233-7.182-7.25-6.561-12.346 1.356-11.122 6.296-21.885 14.815-30.405l4.375-4.375c3.625-3.626 9.177-4.594 13.76-2.294 12.999 6.524 25.187 15.211 36.025 26.049zM470.958 41.04c-54.724-54.745-143.294-54.696-197.99 0-82.156 82.156-78.698 78.29-84.94 86.02-44.627 54.873-41.341 136.069 9.75 187.16 10.838 10.838 23.026 19.525 36.025 26.049 4.582 2.3 10.134 1.331 13.76-2.294l4.375-4.375c8.52-8.519 13.459-19.283 14.815-30.405.621-5.096-1.938-10.113-6.561-12.346a83.706 83.706 0 0 1-22.814-16.229c-32.777-32.777-32.718-86.065 0-118.79l75.19-75.2c32.908-32.887 86.025-32.755 118.8 0 32.887 32.908 32.755 86.025 0 118.8l-45.848 45.84c-2.93 2.929-4.168 7.169-3.202 11.198a173.31 173.31 0 0 1 4.746 37.828c.155 10.546 13.023 15.644 20.486 8.192 11.574-11.558 30.636-30.684 63.409-63.457 54.733-54.735 54.71-143.3-.001-197.991z" class=""></path>
	</symbol>
</svg>